<?xml version="1.0" encoding="UTF-8"?>
<svg version="1.1" xmlns="http://www.w3.org/2000/svg" width="500" height="500">
<path d="M0 0 C165 0 330 0 500 0 C500 90.75 500 181.5 500 275 C335 275 170 275 0 275 C0 184.25 0 93.5 0 0 Z M5 5 C5 92.45 5 179.9 5 270 C166.7 270 328.4 270 495 270 C495 182.55 495 95.1 495 5 C333.3 5 171.6 5 5 5 Z " fill="#000000" transform="translate(0,95)"/>
<path d="M0 0 C31.35 0 62.7 0 95 0 C95 26.4 95 52.8 95 80 C63.65 80 32.3 80 0 80 C0 53.6 0 27.2 0 0 Z M5 5 C5 28.1 5 51.2 5 75 C33.05 75 61.1 75 90 75 C90 51.9 90 28.8 90 5 C61.95 5 33.9 5 5 5 Z " fill="#000000" transform="translate(390,110)"/>
</svg>
